<?xml version="1.0" encoding="utf-8"?>
<!-- Generator: Adobe Illustrator 16.0.0, SVG Export Plug-In . SVG Version: 6.00 Build 0)  -->
<!DOCTYPE svg PUBLIC "-//W3C//DTD SVG 1.1//EN" "http://www.w3.org/Graphics/SVG/1.1/DTD/svg11.dtd">
<svg version="1.1" id="Layer_1" xmlns="http://www.w3.org/2000/svg" xmlns:xlink="http://www.w3.org/1999/xlink" x="0px" y="0px"
	 width="25.547px" height="25.553px" viewBox="0 0 25.547 25.553" enable-background="new 0 0 25.547 25.553" xml:space="preserve">
<g>
	<path d="M25.327,24.249l-6.211-6.209c1.666-1.915,2.676-4.414,2.676-7.145C21.792,4.884,16.901,0,10.896,0C4.885,0,0,4.89,0,10.896
		c0,6.005,4.89,10.896,10.896,10.896c2.729,0,5.229-1.009,7.146-2.675l6.209,6.21c0.147,0.146,0.347,0.227,0.539,0.227
		c0.191,0,0.391-0.072,0.537-0.227C25.622,25.031,25.622,24.544,25.327,24.249z M1.524,10.896c0-5.168,4.204-9.365,9.365-9.365
		c5.167,0,9.365,4.203,9.365,9.365c0,5.162-4.198,9.371-9.365,9.371C5.729,20.267,1.524,16.063,1.524,10.896z"/>
</g>
</svg>
